<?xml version="1.0" encoding="utf-8" standalone="no"?>
<!DOCTYPE svg PUBLIC "-//W3C//DTD SVG 1.1//EN"
  "http://www.w3.org/Graphics/SVG/1.1/DTD/svg11.dtd">
<svg height="565.02657pt" version="1.1" viewBox="0 0 338.722573 565.02657" width="338.722573pt" xmlns="http://www.w3.org/2000/svg" xmlns:xlink="http://www.w3.org/1999/xlink">
 <metadata>
  <rdf:RDF xmlns:cc="http://creativecommons.org/ns#" xmlns:dc="http://purl.org/dc/elements/1.1/" xmlns:rdf="http://www.w3.org/1999/02/22-rdf-syntax-ns#">
   <cc:Work>
    <dc:type rdf:resource="http://purl.org/dc/dcmitype/StillImage"/>
    <dc:date>2022-01-21T14:58:29.570348</dc:date>
    <dc:format>image/svg+xml</dc:format>
    <dc:creator>
     <cc:Agent>
      <dc:title>Matplotlib v3.4.3, https://matplotlib.org/</dc:title>
     </cc:Agent>
    </dc:creator>
   </cc:Work>
  </rdf:RDF>
 </metadata>
 <defs>
  <style type="text/css">*{stroke-linecap:butt;stroke-linejoin:round;}</style>
 </defs>
 <g id="figure_1">
  <g id="patch_1">
   <path d="M 0 565.02657 
L 338.722573 565.02657 
L 338.722573 0 
L 0 0 
z
" style="fill:#ffffff;"/>
  </g>
  <g id="axes_1">
   <g id="patch_2">
    <path d="M 45.175 467.515056 
L 334.262933 467.515056 
L 334.262933 32.887856 
L 45.175 32.887856 
z
" style="fill:#ffffff;"/>
   </g>
   <g id="matplotlib.axis_1">
    <g id="xtick_1">
     <g id="line2d_1">
      <path clip-path="url(#pa21e47e9af)" d="M 58.315361 467.515056 
L 58.315361 32.887856 
" style="fill:none;stroke:#b0b0b0;stroke-linecap:square;stroke-width:0.8;"/>
     </g>
     <g id="line2d_2">
      <defs>
       <path d="M 0 0 
L 0 3.5 
" id="m4821eb550e" style="stroke:#000000;stroke-width:0.8;"/>
      </defs>
      <g>
       <use style="stroke:#000000;stroke-width:0.8;" x="58.315361" xlink:href="#m4821eb550e" y="467.515056"/>
      </g>
     </g>
     <g id="text_1">
      <!-- $\mathdefault{10^{0}}$ -->
      <g transform="translate(40.715361 489.711931)scale(0.2 -0.2)">
       <defs>
        <path d="M 794 531 
L 1825 531 
L 1825 4091 
L 703 3866 
L 703 4441 
L 1819 4666 
L 2450 4666 
L 2450 531 
L 3481 531 
L 3481 0 
L 794 0 
L 794 531 
z
" id="DejaVuSans-31" transform="scale(0.015625)"/>
        <path d="M 2034 4250 
Q 1547 4250 1301 3770 
Q 1056 3291 1056 2328 
Q 1056 1369 1301 889 
Q 1547 409 2034 409 
Q 2525 409 2770 889 
Q 3016 1369 3016 2328 
Q 3016 3291 2770 3770 
Q 2525 4250 2034 4250 
z
M 2034 4750 
Q 2819 4750 3233 4129 
Q 3647 3509 3647 2328 
Q 3647 1150 3233 529 
Q 2819 -91 2034 -91 
Q 1250 -91 836 529 
Q 422 1150 422 2328 
Q 422 3509 836 4129 
Q 1250 4750 2034 4750 
z
" id="DejaVuSans-30" transform="scale(0.015625)"/>
       </defs>
       <use transform="translate(0 0.765625)" xlink:href="#DejaVuSans-31"/>
       <use transform="translate(63.623047 0.765625)" xlink:href="#DejaVuSans-30"/>
       <use transform="translate(128.203125 39.046875)scale(0.7)" xlink:href="#DejaVuSans-30"/>
      </g>
     </g>
    </g>
    <g id="xtick_2">
     <g id="line2d_3">
      <path clip-path="url(#pa21e47e9af)" d="M 189.718967 467.515056 
L 189.718967 32.887856 
" style="fill:none;stroke:#b0b0b0;stroke-linecap:square;stroke-width:0.8;"/>
     </g>
     <g id="line2d_4">
      <g>
       <use style="stroke:#000000;stroke-width:0.8;" x="189.718967" xlink:href="#m4821eb550e" y="467.515056"/>
      </g>
     </g>
     <g id="text_2">
      <!-- $\mathdefault{10^{1}}$ -->
      <g transform="translate(172.118967 489.711931)scale(0.2 -0.2)">
       <use transform="translate(0 0.684375)" xlink:href="#DejaVuSans-31"/>
       <use transform="translate(63.623047 0.684375)" xlink:href="#DejaVuSans-30"/>
       <use transform="translate(128.203125 38.965625)scale(0.7)" xlink:href="#DejaVuSans-31"/>
      </g>
     </g>
    </g>
    <g id="xtick_3">
     <g id="line2d_5">
      <path clip-path="url(#pa21e47e9af)" d="M 321.122573 467.515056 
L 321.122573 32.887856 
" style="fill:none;stroke:#b0b0b0;stroke-linecap:square;stroke-width:0.8;"/>
     </g>
     <g id="line2d_6">
      <g>
       <use style="stroke:#000000;stroke-width:0.8;" x="321.122573" xlink:href="#m4821eb550e" y="467.515056"/>
      </g>
     </g>
     <g id="text_3">
      <!-- $\mathdefault{10^{2}}$ -->
      <g transform="translate(303.522573 489.711931)scale(0.2 -0.2)">
       <defs>
        <path d="M 1228 531 
L 3431 531 
L 3431 0 
L 469 0 
L 469 531 
Q 828 903 1448 1529 
Q 2069 2156 2228 2338 
Q 2531 2678 2651 2914 
Q 2772 3150 2772 3378 
Q 2772 3750 2511 3984 
Q 2250 4219 1831 4219 
Q 1534 4219 1204 4116 
Q 875 4013 500 3803 
L 500 4441 
Q 881 4594 1212 4672 
Q 1544 4750 1819 4750 
Q 2544 4750 2975 4387 
Q 3406 4025 3406 3419 
Q 3406 3131 3298 2873 
Q 3191 2616 2906 2266 
Q 2828 2175 2409 1742 
Q 1991 1309 1228 531 
z
" id="DejaVuSans-32" transform="scale(0.015625)"/>
       </defs>
       <use transform="translate(0 0.765625)" xlink:href="#DejaVuSans-31"/>
       <use transform="translate(63.623047 0.765625)" xlink:href="#DejaVuSans-30"/>
       <use transform="translate(128.203125 39.046875)scale(0.7)" xlink:href="#DejaVuSans-32"/>
      </g>
     </g>
    </g>
    <g id="xtick_4">
     <g id="line2d_7">
      <defs>
       <path d="M 0 0 
L 0 2 
" id="m56397cef7e" style="stroke:#000000;stroke-width:0.6;"/>
      </defs>
      <g>
       <use style="stroke:#000000;stroke-width:0.6;" x="45.581035" xlink:href="#m56397cef7e" y="467.515056"/>
      </g>
     </g>
    </g>
    <g id="xtick_5">
     <g id="line2d_8">
      <g>
       <use style="stroke:#000000;stroke-width:0.6;" x="52.302661" xlink:href="#m56397cef7e" y="467.515056"/>
      </g>
     </g>
    </g>
    <g id="xtick_6">
     <g id="line2d_9">
      <g>
       <use style="stroke:#000000;stroke-width:0.6;" x="97.871788" xlink:href="#m56397cef7e" y="467.515056"/>
      </g>
     </g>
    </g>
    <g id="xtick_7">
     <g id="line2d_10">
      <g>
       <use style="stroke:#000000;stroke-width:0.6;" x="121.010814" xlink:href="#m56397cef7e" y="467.515056"/>
      </g>
     </g>
    </g>
    <g id="xtick_8">
     <g id="line2d_11">
      <g>
       <use style="stroke:#000000;stroke-width:0.6;" x="137.428215" xlink:href="#m56397cef7e" y="467.515056"/>
      </g>
     </g>
    </g>
    <g id="xtick_9">
     <g id="line2d_12">
      <g>
       <use style="stroke:#000000;stroke-width:0.6;" x="150.16254" xlink:href="#m56397cef7e" y="467.515056"/>
      </g>
     </g>
    </g>
    <g id="xtick_10">
     <g id="line2d_13">
      <g>
       <use style="stroke:#000000;stroke-width:0.6;" x="160.567241" xlink:href="#m56397cef7e" y="467.515056"/>
      </g>
     </g>
    </g>
    <g id="xtick_11">
     <g id="line2d_14">
      <g>
       <use style="stroke:#000000;stroke-width:0.6;" x="169.364291" xlink:href="#m56397cef7e" y="467.515056"/>
      </g>
     </g>
    </g>
    <g id="xtick_12">
     <g id="line2d_15">
      <g>
       <use style="stroke:#000000;stroke-width:0.6;" x="176.984642" xlink:href="#m56397cef7e" y="467.515056"/>
      </g>
     </g>
    </g>
    <g id="xtick_13">
     <g id="line2d_16">
      <g>
       <use style="stroke:#000000;stroke-width:0.6;" x="183.706267" xlink:href="#m56397cef7e" y="467.515056"/>
      </g>
     </g>
    </g>
    <g id="xtick_14">
     <g id="line2d_17">
      <g>
       <use style="stroke:#000000;stroke-width:0.6;" x="229.275394" xlink:href="#m56397cef7e" y="467.515056"/>
      </g>
     </g>
    </g>
    <g id="xtick_15">
     <g id="line2d_18">
      <g>
       <use style="stroke:#000000;stroke-width:0.6;" x="252.41442" xlink:href="#m56397cef7e" y="467.515056"/>
      </g>
     </g>
    </g>
    <g id="xtick_16">
     <g id="line2d_19">
      <g>
       <use style="stroke:#000000;stroke-width:0.6;" x="268.831821" xlink:href="#m56397cef7e" y="467.515056"/>
      </g>
     </g>
    </g>
    <g id="xtick_17">
     <g id="line2d_20">
      <g>
       <use style="stroke:#000000;stroke-width:0.6;" x="281.566146" xlink:href="#m56397cef7e" y="467.515056"/>
      </g>
     </g>
    </g>
    <g id="xtick_18">
     <g id="line2d_21">
      <g>
       <use style="stroke:#000000;stroke-width:0.6;" x="291.970847" xlink:href="#m56397cef7e" y="467.515056"/>
      </g>
     </g>
    </g>
    <g id="xtick_19">
     <g id="line2d_22">
      <g>
       <use style="stroke:#000000;stroke-width:0.6;" x="300.767897" xlink:href="#m56397cef7e" y="467.515056"/>
      </g>
     </g>
    </g>
    <g id="xtick_20">
     <g id="line2d_23">
      <g>
       <use style="stroke:#000000;stroke-width:0.6;" x="308.388248" xlink:href="#m56397cef7e" y="467.515056"/>
      </g>
     </g>
    </g>
    <g id="xtick_21">
     <g id="line2d_24">
      <g>
       <use style="stroke:#000000;stroke-width:0.6;" x="315.109874" xlink:href="#m56397cef7e" y="467.515056"/>
      </g>
     </g>
    </g>
    <g id="text_4">
     <!-- mm -->
     <g transform="translate(165.367404 516.8674)scale(0.25 -0.25)">
      <defs>
       <path d="M 3328 2828 
Q 3544 3216 3844 3400 
Q 4144 3584 4550 3584 
Q 5097 3584 5394 3201 
Q 5691 2819 5691 2113 
L 5691 0 
L 5113 0 
L 5113 2094 
Q 5113 2597 4934 2840 
Q 4756 3084 4391 3084 
Q 3944 3084 3684 2787 
Q 3425 2491 3425 1978 
L 3425 0 
L 2847 0 
L 2847 2094 
Q 2847 2600 2669 2842 
Q 2491 3084 2119 3084 
Q 1678 3084 1418 2786 
Q 1159 2488 1159 1978 
L 1159 0 
L 581 0 
L 581 3500 
L 1159 3500 
L 1159 2956 
Q 1356 3278 1631 3431 
Q 1906 3584 2284 3584 
Q 2666 3584 2933 3390 
Q 3200 3197 3328 2828 
z
" id="DejaVuSans-6d" transform="scale(0.015625)"/>
      </defs>
      <use xlink:href="#DejaVuSans-6d"/>
      <use x="97.412109" xlink:href="#DejaVuSans-6d"/>
     </g>
    </g>
   </g>
   <g id="matplotlib.axis_2">
    <g id="ytick_1">
     <g id="line2d_25">
      <path clip-path="url(#pa21e47e9af)" d="M 45.175 467.515056 
L 334.262933 467.515056 
" style="fill:none;stroke:#b0b0b0;stroke-linecap:square;stroke-width:0.8;"/>
     </g>
     <g id="line2d_26">
      <defs>
       <path d="M 0 0 
L -3.5 0 
" id="m91bc4faca2" style="stroke:#000000;stroke-width:0.8;"/>
      </defs>
      <g>
       <use style="stroke:#000000;stroke-width:0.8;" x="45.175" xlink:href="#m91bc4faca2" y="467.515056"/>
      </g>
     </g>
     <g id="text_5">
      <!-- 0 -->
      <g transform="translate(25.45 475.113494)scale(0.2 -0.2)">
       <use xlink:href="#DejaVuSans-30"/>
      </g>
     </g>
    </g>
    <g id="ytick_2">
     <g id="line2d_27">
      <path clip-path="url(#pa21e47e9af)" d="M 45.175 380.589616 
L 334.262933 380.589616 
" style="fill:none;stroke:#b0b0b0;stroke-linecap:square;stroke-width:0.8;"/>
     </g>
     <g id="line2d_28">
      <g>
       <use style="stroke:#000000;stroke-width:0.8;" x="45.175" xlink:href="#m91bc4faca2" y="380.589616"/>
      </g>
     </g>
     <g id="text_6">
      <!-- 20 -->
      <g transform="translate(12.725 388.188054)scale(0.2 -0.2)">
       <use xlink:href="#DejaVuSans-32"/>
       <use x="63.623047" xlink:href="#DejaVuSans-30"/>
      </g>
     </g>
    </g>
    <g id="ytick_3">
     <g id="line2d_29">
      <path clip-path="url(#pa21e47e9af)" d="M 45.175 293.664176 
L 334.262933 293.664176 
" style="fill:none;stroke:#b0b0b0;stroke-linecap:square;stroke-width:0.8;"/>
     </g>
     <g id="line2d_30">
      <g>
       <use style="stroke:#000000;stroke-width:0.8;" x="45.175" xlink:href="#m91bc4faca2" y="293.664176"/>
      </g>
     </g>
     <g id="text_7">
      <!-- 40 -->
      <g transform="translate(12.725 301.262614)scale(0.2 -0.2)">
       <defs>
        <path d="M 2419 4116 
L 825 1625 
L 2419 1625 
L 2419 4116 
z
M 2253 4666 
L 3047 4666 
L 3047 1625 
L 3713 1625 
L 3713 1100 
L 3047 1100 
L 3047 0 
L 2419 0 
L 2419 1100 
L 313 1100 
L 313 1709 
L 2253 4666 
z
" id="DejaVuSans-34" transform="scale(0.015625)"/>
       </defs>
       <use xlink:href="#DejaVuSans-34"/>
       <use x="63.623047" xlink:href="#DejaVuSans-30"/>
      </g>
     </g>
    </g>
    <g id="ytick_4">
     <g id="line2d_31">
      <path clip-path="url(#pa21e47e9af)" d="M 45.175 206.738736 
L 334.262933 206.738736 
" style="fill:none;stroke:#b0b0b0;stroke-linecap:square;stroke-width:0.8;"/>
     </g>
     <g id="line2d_32">
      <g>
       <use style="stroke:#000000;stroke-width:0.8;" x="45.175" xlink:href="#m91bc4faca2" y="206.738736"/>
      </g>
     </g>
     <g id="text_8">
      <!-- 60 -->
      <g transform="translate(12.725 214.337174)scale(0.2 -0.2)">
       <defs>
        <path d="M 2113 2584 
Q 1688 2584 1439 2293 
Q 1191 2003 1191 1497 
Q 1191 994 1439 701 
Q 1688 409 2113 409 
Q 2538 409 2786 701 
Q 3034 994 3034 1497 
Q 3034 2003 2786 2293 
Q 2538 2584 2113 2584 
z
M 3366 4563 
L 3366 3988 
Q 3128 4100 2886 4159 
Q 2644 4219 2406 4219 
Q 1781 4219 1451 3797 
Q 1122 3375 1075 2522 
Q 1259 2794 1537 2939 
Q 1816 3084 2150 3084 
Q 2853 3084 3261 2657 
Q 3669 2231 3669 1497 
Q 3669 778 3244 343 
Q 2819 -91 2113 -91 
Q 1303 -91 875 529 
Q 447 1150 447 2328 
Q 447 3434 972 4092 
Q 1497 4750 2381 4750 
Q 2619 4750 2861 4703 
Q 3103 4656 3366 4563 
z
" id="DejaVuSans-36" transform="scale(0.015625)"/>
       </defs>
       <use xlink:href="#DejaVuSans-36"/>
       <use x="63.623047" xlink:href="#DejaVuSans-30"/>
      </g>
     </g>
    </g>
    <g id="ytick_5">
     <g id="line2d_33">
      <path clip-path="url(#pa21e47e9af)" d="M 45.175 119.813296 
L 334.262933 119.813296 
" style="fill:none;stroke:#b0b0b0;stroke-linecap:square;stroke-width:0.8;"/>
     </g>
     <g id="line2d_34">
      <g>
       <use style="stroke:#000000;stroke-width:0.8;" x="45.175" xlink:href="#m91bc4faca2" y="119.813296"/>
      </g>
     </g>
     <g id="text_9">
      <!-- 80 -->
      <g transform="translate(12.725 127.411734)scale(0.2 -0.2)">
       <defs>
        <path d="M 2034 2216 
Q 1584 2216 1326 1975 
Q 1069 1734 1069 1313 
Q 1069 891 1326 650 
Q 1584 409 2034 409 
Q 2484 409 2743 651 
Q 3003 894 3003 1313 
Q 3003 1734 2745 1975 
Q 2488 2216 2034 2216 
z
M 1403 2484 
Q 997 2584 770 2862 
Q 544 3141 544 3541 
Q 544 4100 942 4425 
Q 1341 4750 2034 4750 
Q 2731 4750 3128 4425 
Q 3525 4100 3525 3541 
Q 3525 3141 3298 2862 
Q 3072 2584 2669 2484 
Q 3125 2378 3379 2068 
Q 3634 1759 3634 1313 
Q 3634 634 3220 271 
Q 2806 -91 2034 -91 
Q 1263 -91 848 271 
Q 434 634 434 1313 
Q 434 1759 690 2068 
Q 947 2378 1403 2484 
z
M 1172 3481 
Q 1172 3119 1398 2916 
Q 1625 2713 2034 2713 
Q 2441 2713 2670 2916 
Q 2900 3119 2900 3481 
Q 2900 3844 2670 4047 
Q 2441 4250 2034 4250 
Q 1625 4250 1398 4047 
Q 1172 3844 1172 3481 
z
" id="DejaVuSans-38" transform="scale(0.015625)"/>
       </defs>
       <use xlink:href="#DejaVuSans-38"/>
       <use x="63.623047" xlink:href="#DejaVuSans-30"/>
      </g>
     </g>
    </g>
    <g id="ytick_6">
     <g id="line2d_35">
      <path clip-path="url(#pa21e47e9af)" d="M 45.175 32.887856 
L 334.262933 32.887856 
" style="fill:none;stroke:#b0b0b0;stroke-linecap:square;stroke-width:0.8;"/>
     </g>
     <g id="line2d_36">
      <g>
       <use style="stroke:#000000;stroke-width:0.8;" x="45.175" xlink:href="#m91bc4faca2" y="32.887856"/>
      </g>
     </g>
     <g id="text_10">
      <!-- 100 -->
      <g transform="translate(0 40.486294)scale(0.2 -0.2)">
       <use xlink:href="#DejaVuSans-31"/>
       <use x="63.623047" xlink:href="#DejaVuSans-30"/>
       <use x="127.246094" xlink:href="#DejaVuSans-30"/>
      </g>
     </g>
    </g>
    <g id="text_11">
     <!-- Recall [%] -->
     <g transform="translate(112.368086 18.996094)scale(0.25 -0.25)">
      <defs>
       <path d="M 2841 2188 
Q 3044 2119 3236 1894 
Q 3428 1669 3622 1275 
L 4263 0 
L 3584 0 
L 2988 1197 
Q 2756 1666 2539 1819 
Q 2322 1972 1947 1972 
L 1259 1972 
L 1259 0 
L 628 0 
L 628 4666 
L 2053 4666 
Q 2853 4666 3247 4331 
Q 3641 3997 3641 3322 
Q 3641 2881 3436 2590 
Q 3231 2300 2841 2188 
z
M 1259 4147 
L 1259 2491 
L 2053 2491 
Q 2509 2491 2742 2702 
Q 2975 2913 2975 3322 
Q 2975 3731 2742 3939 
Q 2509 4147 2053 4147 
L 1259 4147 
z
" id="DejaVuSans-52" transform="scale(0.015625)"/>
       <path d="M 3597 1894 
L 3597 1613 
L 953 1613 
Q 991 1019 1311 708 
Q 1631 397 2203 397 
Q 2534 397 2845 478 
Q 3156 559 3463 722 
L 3463 178 
Q 3153 47 2828 -22 
Q 2503 -91 2169 -91 
Q 1331 -91 842 396 
Q 353 884 353 1716 
Q 353 2575 817 3079 
Q 1281 3584 2069 3584 
Q 2775 3584 3186 3129 
Q 3597 2675 3597 1894 
z
M 3022 2063 
Q 3016 2534 2758 2815 
Q 2500 3097 2075 3097 
Q 1594 3097 1305 2825 
Q 1016 2553 972 2059 
L 3022 2063 
z
" id="DejaVuSans-65" transform="scale(0.015625)"/>
       <path d="M 3122 3366 
L 3122 2828 
Q 2878 2963 2633 3030 
Q 2388 3097 2138 3097 
Q 1578 3097 1268 2742 
Q 959 2388 959 1747 
Q 959 1106 1268 751 
Q 1578 397 2138 397 
Q 2388 397 2633 464 
Q 2878 531 3122 666 
L 3122 134 
Q 2881 22 2623 -34 
Q 2366 -91 2075 -91 
Q 1284 -91 818 406 
Q 353 903 353 1747 
Q 353 2603 823 3093 
Q 1294 3584 2113 3584 
Q 2378 3584 2631 3529 
Q 2884 3475 3122 3366 
z
" id="DejaVuSans-63" transform="scale(0.015625)"/>
       <path d="M 2194 1759 
Q 1497 1759 1228 1600 
Q 959 1441 959 1056 
Q 959 750 1161 570 
Q 1363 391 1709 391 
Q 2188 391 2477 730 
Q 2766 1069 2766 1631 
L 2766 1759 
L 2194 1759 
z
M 3341 1997 
L 3341 0 
L 2766 0 
L 2766 531 
Q 2569 213 2275 61 
Q 1981 -91 1556 -91 
Q 1019 -91 701 211 
Q 384 513 384 1019 
Q 384 1609 779 1909 
Q 1175 2209 1959 2209 
L 2766 2209 
L 2766 2266 
Q 2766 2663 2505 2880 
Q 2244 3097 1772 3097 
Q 1472 3097 1187 3025 
Q 903 2953 641 2809 
L 641 3341 
Q 956 3463 1253 3523 
Q 1550 3584 1831 3584 
Q 2591 3584 2966 3190 
Q 3341 2797 3341 1997 
z
" id="DejaVuSans-61" transform="scale(0.015625)"/>
       <path d="M 603 4863 
L 1178 4863 
L 1178 0 
L 603 0 
L 603 4863 
z
" id="DejaVuSans-6c" transform="scale(0.015625)"/>
       <path id="DejaVuSans-20" transform="scale(0.015625)"/>
       <path d="M 550 4863 
L 1875 4863 
L 1875 4416 
L 1125 4416 
L 1125 -397 
L 1875 -397 
L 1875 -844 
L 550 -844 
L 550 4863 
z
" id="DejaVuSans-5b" transform="scale(0.015625)"/>
       <path d="M 4653 2053 
Q 4381 2053 4226 1822 
Q 4072 1591 4072 1178 
Q 4072 772 4226 539 
Q 4381 306 4653 306 
Q 4919 306 5073 539 
Q 5228 772 5228 1178 
Q 5228 1588 5073 1820 
Q 4919 2053 4653 2053 
z
M 4653 2450 
Q 5147 2450 5437 2106 
Q 5728 1763 5728 1178 
Q 5728 594 5436 251 
Q 5144 -91 4653 -91 
Q 4153 -91 3862 251 
Q 3572 594 3572 1178 
Q 3572 1766 3864 2108 
Q 4156 2450 4653 2450 
z
M 1428 4353 
Q 1159 4353 1004 4120 
Q 850 3888 850 3481 
Q 850 3069 1003 2837 
Q 1156 2606 1428 2606 
Q 1700 2606 1854 2837 
Q 2009 3069 2009 3481 
Q 2009 3884 1853 4118 
Q 1697 4353 1428 4353 
z
M 4250 4750 
L 4750 4750 
L 1831 -91 
L 1331 -91 
L 4250 4750 
z
M 1428 4750 
Q 1922 4750 2215 4408 
Q 2509 4066 2509 3481 
Q 2509 2891 2217 2550 
Q 1925 2209 1428 2209 
Q 931 2209 642 2551 
Q 353 2894 353 3481 
Q 353 4063 643 4406 
Q 934 4750 1428 4750 
z
" id="DejaVuSans-25" transform="scale(0.015625)"/>
       <path d="M 1947 4863 
L 1947 -844 
L 622 -844 
L 622 -397 
L 1369 -397 
L 1369 4416 
L 622 4416 
L 622 4863 
L 1947 4863 
z
" id="DejaVuSans-5d" transform="scale(0.015625)"/>
      </defs>
      <use xlink:href="#DejaVuSans-52"/>
      <use x="64.982422" xlink:href="#DejaVuSans-65"/>
      <use x="126.505859" xlink:href="#DejaVuSans-63"/>
      <use x="181.486328" xlink:href="#DejaVuSans-61"/>
      <use x="242.765625" xlink:href="#DejaVuSans-6c"/>
      <use x="270.548828" xlink:href="#DejaVuSans-6c"/>
      <use x="298.332031" xlink:href="#DejaVuSans-20"/>
      <use x="330.119141" xlink:href="#DejaVuSans-5b"/>
      <use x="369.132812" xlink:href="#DejaVuSans-25"/>
      <use x="464.152344" xlink:href="#DejaVuSans-5d"/>
     </g>
    </g>
   </g>
   <g id="patch_3">
    <path d="M 45.175 467.515056 
L 45.175 32.887856 
" style="fill:none;stroke:#000000;stroke-linecap:square;stroke-linejoin:miter;stroke-width:0.8;"/>
   </g>
   <g id="patch_4">
    <path d="M 334.262933 467.515056 
L 334.262933 32.887856 
" style="fill:none;stroke:#000000;stroke-linecap:square;stroke-linejoin:miter;stroke-width:0.8;"/>
   </g>
   <g id="patch_5">
    <path d="M 45.175 467.515056 
L 334.262933 467.515056 
" style="fill:none;stroke:#000000;stroke-linecap:square;stroke-linejoin:miter;stroke-width:0.8;"/>
   </g>
   <g id="patch_6">
    <path d="M 45.175 32.887856 
L 334.262933 32.887856 
" style="fill:none;stroke:#000000;stroke-linecap:square;stroke-linejoin:miter;stroke-width:0.8;"/>
   </g>
   <g id="legend_1">
    <g id="patch_7">
     <path d="M 23.331758 565.02657 
L 327.197383 565.02657 
Q 331.197383 565.02657 331.197383 561.02657 
L 331.197383 533.67032 
Q 331.197383 529.67032 327.197383 529.67032 
L 23.331758 529.67032 
Q 19.331758 529.67032 19.331758 533.67032 
L 19.331758 561.02657 
Q 19.331758 565.02657 23.331758 565.02657 
z
" style="fill:#ffffff;opacity:0.8;stroke:#cccccc;stroke-linejoin:miter;"/>
    </g>
    <g id="line2d_37">
     <path d="M 27.331758 545.867195 
L 87.331758 545.867195 
" style="fill:none;stroke:#000000;stroke-linecap:square;stroke-width:4;"/>
    </g>
    <g id="line2d_38"/>
    <g id="text_12">
     <!-- raw -->
     <g transform="translate(103.331758 552.867195)scale(0.2 -0.2)">
      <defs>
       <path d="M 2631 2963 
Q 2534 3019 2420 3045 
Q 2306 3072 2169 3072 
Q 1681 3072 1420 2755 
Q 1159 2438 1159 1844 
L 1159 0 
L 581 0 
L 581 3500 
L 1159 3500 
L 1159 2956 
Q 1341 3275 1631 3429 
Q 1922 3584 2338 3584 
Q 2397 3584 2469 3576 
Q 2541 3569 2628 3553 
L 2631 2963 
z
" id="DejaVuSans-72" transform="scale(0.015625)"/>
       <path d="M 269 3500 
L 844 3500 
L 1563 769 
L 2278 3500 
L 2956 3500 
L 3675 769 
L 4391 3500 
L 4966 3500 
L 4050 0 
L 3372 0 
L 2619 2869 
L 1863 0 
L 1184 0 
L 269 3500 
z
" id="DejaVuSans-77" transform="scale(0.015625)"/>
      </defs>
      <use xlink:href="#DejaVuSans-72"/>
      <use x="41.113281" xlink:href="#DejaVuSans-61"/>
      <use x="102.392578" xlink:href="#DejaVuSans-77"/>
     </g>
    </g>
    <g id="line2d_39">
     <path d="M 180.166133 545.867195 
L 240.166133 545.867195 
" style="fill:none;stroke:#000000;stroke-dasharray:14.8,6.4;stroke-dashoffset:0;stroke-width:4;"/>
    </g>
    <g id="line2d_40"/>
    <g id="text_13">
     <!-- pixsfm -->
     <g transform="translate(256.166133 552.867195)scale(0.2 -0.2)">
      <defs>
       <path d="M 1159 525 
L 1159 -1331 
L 581 -1331 
L 581 3500 
L 1159 3500 
L 1159 2969 
Q 1341 3281 1617 3432 
Q 1894 3584 2278 3584 
Q 2916 3584 3314 3078 
Q 3713 2572 3713 1747 
Q 3713 922 3314 415 
Q 2916 -91 2278 -91 
Q 1894 -91 1617 61 
Q 1341 213 1159 525 
z
M 3116 1747 
Q 3116 2381 2855 2742 
Q 2594 3103 2138 3103 
Q 1681 3103 1420 2742 
Q 1159 2381 1159 1747 
Q 1159 1113 1420 752 
Q 1681 391 2138 391 
Q 2594 391 2855 752 
Q 3116 1113 3116 1747 
z
" id="DejaVuSans-70" transform="scale(0.015625)"/>
       <path d="M 603 3500 
L 1178 3500 
L 1178 0 
L 603 0 
L 603 3500 
z
M 603 4863 
L 1178 4863 
L 1178 4134 
L 603 4134 
L 603 4863 
z
" id="DejaVuSans-69" transform="scale(0.015625)"/>
       <path d="M 3513 3500 
L 2247 1797 
L 3578 0 
L 2900 0 
L 1881 1375 
L 863 0 
L 184 0 
L 1544 1831 
L 300 3500 
L 978 3500 
L 1906 2253 
L 2834 3500 
L 3513 3500 
z
" id="DejaVuSans-78" transform="scale(0.015625)"/>
       <path d="M 2834 3397 
L 2834 2853 
Q 2591 2978 2328 3040 
Q 2066 3103 1784 3103 
Q 1356 3103 1142 2972 
Q 928 2841 928 2578 
Q 928 2378 1081 2264 
Q 1234 2150 1697 2047 
L 1894 2003 
Q 2506 1872 2764 1633 
Q 3022 1394 3022 966 
Q 3022 478 2636 193 
Q 2250 -91 1575 -91 
Q 1294 -91 989 -36 
Q 684 19 347 128 
L 347 722 
Q 666 556 975 473 
Q 1284 391 1588 391 
Q 1994 391 2212 530 
Q 2431 669 2431 922 
Q 2431 1156 2273 1281 
Q 2116 1406 1581 1522 
L 1381 1569 
Q 847 1681 609 1914 
Q 372 2147 372 2553 
Q 372 3047 722 3315 
Q 1072 3584 1716 3584 
Q 2034 3584 2315 3537 
Q 2597 3491 2834 3397 
z
" id="DejaVuSans-73" transform="scale(0.015625)"/>
       <path d="M 2375 4863 
L 2375 4384 
L 1825 4384 
Q 1516 4384 1395 4259 
Q 1275 4134 1275 3809 
L 1275 3500 
L 2222 3500 
L 2222 3053 
L 1275 3053 
L 1275 0 
L 697 0 
L 697 3053 
L 147 3053 
L 147 3500 
L 697 3500 
L 697 3744 
Q 697 4328 969 4595 
Q 1241 4863 1831 4863 
L 2375 4863 
z
" id="DejaVuSans-66" transform="scale(0.015625)"/>
      </defs>
      <use xlink:href="#DejaVuSans-70"/>
      <use x="63.476562" xlink:href="#DejaVuSans-69"/>
      <use x="91.259766" xlink:href="#DejaVuSans-78"/>
      <use x="150.439453" xlink:href="#DejaVuSans-73"/>
      <use x="202.539062" xlink:href="#DejaVuSans-66"/>
      <use x="237.744141" xlink:href="#DejaVuSans-6d"/>
     </g>
    </g>
   </g>
   <g id="line2d_41">
    <path clip-path="url(#pa21e47e9af)" d="M 58.315361 393.962761 
L 97.871788 293.664176 
L 121.010814 243.514884 
L 137.428215 223.455167 
L 150.16254 196.708878 
L 160.567241 183.335733 
L 169.364291 166.619303 
L 176.984642 159.93273 
L 183.706267 153.246158 
L 189.718967 149.902872 
L 195.158115 133.186441 
L 200.123668 126.499869 
L 204.691534 119.813296 
L 208.920718 113.126724 
L 212.857993 113.126724 
L 216.541069 113.126724 
L 220.000786 109.783438 
L 223.262694 109.783438 
L 226.348195 109.783438 
L 229.275394 109.783438 
L 232.059744 109.783438 
L 234.714542 106.440152 
L 237.251309 106.440152 
L 239.680095 103.096866 
L 242.009719 103.096866 
L 244.247961 103.096866 
L 246.401721 103.096866 
L 248.477145 103.096866 
L 250.479731 103.096866 
L 252.41442 103.096866 
L 254.285665 103.096866 
L 256.097495 103.096866 
L 257.853568 103.096866 
L 259.557213 103.096866 
L 261.21147 103.096866 
L 262.819121 103.096866 
L 264.382722 103.096866 
L 265.904622 103.096866 
L 267.386988 103.096866 
L 268.831821 103.096866 
L 270.240975 103.096866 
L 271.616171 103.096866 
L 272.959006 103.096866 
L 274.270969 103.096866 
L 275.553447 103.096866 
L 276.807736 103.096866 
L 278.035049 103.096866 
L 279.236522 103.096866 
L 280.413221 103.096866 
L 281.566146 99.75358 
L 282.696239 99.75358 
L 283.804388 99.75358 
L 284.891428 99.75358 
L 285.958148 99.75358 
L 287.005294 99.75358 
L 288.033571 99.75358 
L 289.043649 99.75358 
L 290.036158 99.75358 
L 291.011701 99.75358 
L 291.970847 99.75358 
L 292.914139 99.75358 
L 293.842092 99.75358 
L 294.755197 99.75358 
L 295.653922 99.75358 
L 296.538713 99.75358 
L 297.409995 99.75358 
L 298.268175 99.75358 
L 299.11364 99.75358 
L 299.946762 99.75358 
L 300.767897 99.75358 
L 301.577383 99.75358 
L 302.375548 99.75358 
L 303.162704 99.75358 
L 303.939149 99.75358 
L 304.705172 99.75358 
L 305.461049 99.75358 
L 306.207045 99.75358 
L 306.943414 99.75358 
L 307.670403 99.75358 
L 308.388248 99.75358 
L 309.097174 99.75358 
L 309.797402 99.75358 
L 310.489142 99.75358 
L 311.172598 99.75358 
L 311.847965 99.75358 
L 312.515433 99.75358 
L 313.175185 99.75358 
L 313.827396 99.75358 
L 314.472237 99.75358 
L 315.109874 99.75358 
L 315.740464 99.75358 
L 316.364163 99.75358 
L 316.981119 99.75358 
L 317.591476 99.75358 
L 318.195374 99.75358 
L 318.792949 99.75358 
L 319.384331 99.75358 
L 319.969648 99.75358 
L 320.549022 99.75358 
L 321.122573 99.75358 
" style="fill:none;stroke:#000000;stroke-linecap:square;stroke-width:3;"/>
   </g>
   <g id="line2d_42">
    <path clip-path="url(#pa21e47e9af)" d="M 58.315361 400.649333 
L 97.871788 290.32089 
L 121.010814 206.738736 
L 137.428215 173.305875 
L 150.16254 146.559586 
L 160.567241 126.499869 
L 169.364291 116.47001 
L 176.984642 113.126724 
L 183.706267 106.440152 
L 189.718967 103.096866 
L 195.158115 103.096866 
L 200.123668 89.723721 
L 204.691534 89.723721 
L 208.920718 89.723721 
L 212.857993 89.723721 
L 216.541069 89.723721 
L 220.000786 86.380435 
L 223.262694 86.380435 
L 226.348195 86.380435 
L 229.275394 86.380435 
L 232.059744 86.380435 
L 234.714542 86.380435 
L 237.251309 86.380435 
L 239.680095 83.037149 
L 242.009719 83.037149 
L 244.247961 83.037149 
L 246.401721 83.037149 
L 248.477145 83.037149 
L 250.479731 83.037149 
L 252.41442 83.037149 
L 254.285665 83.037149 
L 256.097495 83.037149 
L 257.853568 83.037149 
L 259.557213 83.037149 
L 261.21147 83.037149 
L 262.819121 83.037149 
L 264.382722 83.037149 
L 265.904622 83.037149 
L 267.386988 83.037149 
L 268.831821 83.037149 
L 270.240975 83.037149 
L 271.616171 83.037149 
L 272.959006 83.037149 
L 274.270969 83.037149 
L 275.553447 83.037149 
L 276.807736 83.037149 
L 278.035049 83.037149 
L 279.236522 79.693863 
L 280.413221 79.693863 
L 281.566146 79.693863 
L 282.696239 79.693863 
L 283.804388 79.693863 
L 284.891428 79.693863 
L 285.958148 76.350576 
L 287.005294 76.350576 
L 288.033571 73.00729 
L 289.043649 73.00729 
L 290.036158 73.00729 
L 291.011701 73.00729 
L 291.970847 73.00729 
L 292.914139 73.00729 
L 293.842092 73.00729 
L 294.755197 73.00729 
L 295.653922 73.00729 
L 296.538713 73.00729 
L 297.409995 73.00729 
L 298.268175 73.00729 
L 299.11364 73.00729 
L 299.946762 73.00729 
L 300.767897 73.00729 
L 301.577383 73.00729 
L 302.375548 73.00729 
L 303.162704 73.00729 
L 303.939149 73.00729 
L 304.705172 73.00729 
L 305.461049 73.00729 
L 306.207045 73.00729 
L 306.943414 73.00729 
L 307.670403 73.00729 
L 308.388248 73.00729 
L 309.097174 73.00729 
L 309.797402 73.00729 
L 310.489142 73.00729 
L 311.172598 73.00729 
L 311.847965 73.00729 
L 312.515433 73.00729 
L 313.175185 73.00729 
L 313.827396 73.00729 
L 314.472237 73.00729 
L 315.109874 73.00729 
L 315.740464 69.664004 
L 316.364163 69.664004 
L 316.981119 69.664004 
L 317.591476 69.664004 
L 318.195374 69.664004 
L 318.792949 69.664004 
L 319.384331 69.664004 
L 319.969648 69.664004 
L 320.549022 69.664004 
L 321.122573 69.664004 
" style="fill:none;stroke:#ff0000;stroke-linecap:square;stroke-width:3;"/>
   </g>
   <g id="line2d_43">
    <path clip-path="url(#pa21e47e9af)" d="M 58.315361 440.768767 
L 97.871788 357.186613 
L 121.010814 266.917887 
L 137.428215 233.485026 
L 150.16254 200.052164 
L 160.567241 179.992447 
L 169.364291 166.619303 
L 176.984642 156.589444 
L 183.706267 153.246158 
L 189.718967 149.902872 
L 195.158115 149.902872 
L 200.123668 143.2163 
L 204.691534 136.529727 
L 208.920718 129.843155 
L 212.857993 119.813296 
L 216.541069 119.813296 
L 220.000786 119.813296 
L 223.262694 116.47001 
L 226.348195 116.47001 
L 229.275394 106.440152 
L 232.059744 106.440152 
L 234.714542 106.440152 
L 237.251309 103.096866 
L 239.680095 99.75358 
L 242.009719 99.75358 
L 244.247961 99.75358 
L 246.401721 99.75358 
L 248.477145 99.75358 
L 250.479731 96.410293 
L 252.41442 93.067007 
L 254.285665 93.067007 
L 256.097495 93.067007 
L 257.853568 93.067007 
L 259.557213 93.067007 
L 261.21147 93.067007 
L 262.819121 93.067007 
L 264.382722 93.067007 
L 265.904622 89.723721 
L 267.386988 89.723721 
L 268.831821 89.723721 
L 270.240975 89.723721 
L 271.616171 89.723721 
L 272.959006 89.723721 
L 274.270969 89.723721 
L 275.553447 89.723721 
L 276.807736 89.723721 
L 278.035049 89.723721 
L 279.236522 89.723721 
L 280.413221 89.723721 
L 281.566146 86.380435 
L 282.696239 86.380435 
L 283.804388 86.380435 
L 284.891428 86.380435 
L 285.958148 86.380435 
L 287.005294 83.037149 
L 288.033571 79.693863 
L 289.043649 79.693863 
L 290.036158 79.693863 
L 291.011701 79.693863 
L 291.970847 79.693863 
L 292.914139 79.693863 
L 293.842092 79.693863 
L 294.755197 79.693863 
L 295.653922 79.693863 
L 296.538713 79.693863 
L 297.409995 79.693863 
L 298.268175 79.693863 
L 299.11364 79.693863 
L 299.946762 79.693863 
L 300.767897 79.693863 
L 301.577383 79.693863 
L 302.375548 79.693863 
L 303.162704 79.693863 
L 303.939149 79.693863 
L 304.705172 79.693863 
L 305.461049 79.693863 
L 306.207045 79.693863 
L 306.943414 79.693863 
L 307.670403 79.693863 
L 308.388248 79.693863 
L 309.097174 79.693863 
L 309.797402 79.693863 
L 310.489142 79.693863 
L 311.172598 79.693863 
L 311.847965 79.693863 
L 312.515433 79.693863 
L 313.175185 79.693863 
L 313.827396 79.693863 
L 314.472237 79.693863 
L 315.109874 79.693863 
L 315.740464 79.693863 
L 316.364163 79.693863 
L 316.981119 79.693863 
L 317.591476 79.693863 
L 318.195374 79.693863 
L 318.792949 79.693863 
L 319.384331 79.693863 
L 319.969648 79.693863 
L 320.549022 79.693863 
L 321.122573 79.693863 
" style="fill:none;stroke:#008000;stroke-linecap:square;stroke-width:3;"/>
   </g>
   <g id="line2d_44">
    <path clip-path="url(#pa21e47e9af)" d="M 58.315361 367.216472 
L 97.871788 286.977604 
L 121.010814 246.85817 
L 137.428215 193.365592 
L 150.16254 169.962589 
L 160.567241 153.246158 
L 169.364291 143.2163 
L 176.984642 139.873013 
L 183.706267 133.186441 
L 189.718967 123.156583 
L 195.158115 119.813296 
L 200.123668 116.47001 
L 204.691534 116.47001 
L 208.920718 116.47001 
L 212.857993 113.126724 
L 216.541069 109.783438 
L 220.000786 109.783438 
L 223.262694 109.783438 
L 226.348195 106.440152 
L 229.275394 103.096866 
L 232.059744 99.75358 
L 234.714542 99.75358 
L 237.251309 99.75358 
L 239.680095 99.75358 
L 242.009719 99.75358 
L 244.247961 99.75358 
L 246.401721 99.75358 
L 248.477145 99.75358 
L 250.479731 96.410293 
L 252.41442 96.410293 
L 254.285665 96.410293 
L 256.097495 96.410293 
L 257.853568 96.410293 
L 259.557213 96.410293 
L 261.21147 96.410293 
L 262.819121 96.410293 
L 264.382722 96.410293 
L 265.904622 96.410293 
L 267.386988 96.410293 
L 268.831821 96.410293 
L 270.240975 96.410293 
L 271.616171 96.410293 
L 272.959006 96.410293 
L 274.270969 93.067007 
L 275.553447 93.067007 
L 276.807736 93.067007 
L 278.035049 93.067007 
L 279.236522 89.723721 
L 280.413221 89.723721 
L 281.566146 89.723721 
L 282.696239 89.723721 
L 283.804388 89.723721 
L 284.891428 89.723721 
L 285.958148 89.723721 
L 287.005294 89.723721 
L 288.033571 89.723721 
L 289.043649 89.723721 
L 290.036158 89.723721 
L 291.011701 89.723721 
L 291.970847 89.723721 
L 292.914139 89.723721 
L 293.842092 89.723721 
L 294.755197 89.723721 
L 295.653922 89.723721 
L 296.538713 89.723721 
L 297.409995 89.723721 
L 298.268175 89.723721 
L 299.11364 89.723721 
L 299.946762 89.723721 
L 300.767897 86.380435 
L 301.577383 86.380435 
L 302.375548 86.380435 
L 303.162704 86.380435 
L 303.939149 86.380435 
L 304.705172 86.380435 
L 305.461049 86.380435 
L 306.207045 86.380435 
L 306.943414 86.380435 
L 307.670403 86.380435 
L 308.388248 86.380435 
L 309.097174 86.380435 
L 309.797402 86.380435 
L 310.489142 86.380435 
L 311.172598 83.037149 
L 311.847965 83.037149 
L 312.515433 83.037149 
L 313.175185 83.037149 
L 313.827396 83.037149 
L 314.472237 83.037149 
L 315.109874 83.037149 
L 315.740464 83.037149 
L 316.364163 83.037149 
L 316.981119 83.037149 
L 317.591476 83.037149 
L 318.195374 83.037149 
L 318.792949 79.693863 
L 319.384331 79.693863 
L 319.969648 79.693863 
L 320.549022 79.693863 
L 321.122573 79.693863 
" style="fill:none;stroke:#000000;stroke-dasharray:11.1,4.8;stroke-dashoffset:0;stroke-width:3;"/>
   </g>
   <g id="line2d_45">
    <path clip-path="url(#pa21e47e9af)" d="M 58.315361 286.977604 
L 97.871788 203.39545 
L 121.010814 163.276016 
L 137.428215 129.843155 
L 150.16254 116.47001 
L 160.567241 109.783438 
L 169.364291 103.096866 
L 176.984642 99.75358 
L 183.706267 93.067007 
L 189.718967 79.693863 
L 195.158115 79.693863 
L 200.123668 76.350576 
L 204.691534 73.00729 
L 208.920718 73.00729 
L 212.857993 73.00729 
L 216.541069 73.00729 
L 220.000786 73.00729 
L 223.262694 73.00729 
L 226.348195 73.00729 
L 229.275394 73.00729 
L 232.059744 73.00729 
L 234.714542 73.00729 
L 237.251309 73.00729 
L 239.680095 73.00729 
L 242.009719 73.00729 
L 244.247961 73.00729 
L 246.401721 73.00729 
L 248.477145 73.00729 
L 250.479731 73.00729 
L 252.41442 73.00729 
L 254.285665 69.664004 
L 256.097495 69.664004 
L 257.853568 69.664004 
L 259.557213 69.664004 
L 261.21147 69.664004 
L 262.819121 69.664004 
L 264.382722 69.664004 
L 265.904622 69.664004 
L 267.386988 69.664004 
L 268.831821 69.664004 
L 270.240975 69.664004 
L 271.616171 69.664004 
L 272.959006 69.664004 
L 274.270969 69.664004 
L 275.553447 69.664004 
L 276.807736 69.664004 
L 278.035049 69.664004 
L 279.236522 69.664004 
L 280.413221 69.664004 
L 281.566146 69.664004 
L 282.696239 69.664004 
L 283.804388 69.664004 
L 284.891428 69.664004 
L 285.958148 69.664004 
L 287.005294 69.664004 
L 288.033571 69.664004 
L 289.043649 69.664004 
L 290.036158 69.664004 
L 291.011701 69.664004 
L 291.970847 69.664004 
L 292.914139 69.664004 
L 293.842092 69.664004 
L 294.755197 69.664004 
L 295.653922 69.664004 
L 296.538713 69.664004 
L 297.409995 69.664004 
L 298.268175 69.664004 
L 299.11364 69.664004 
L 299.946762 69.664004 
L 300.767897 69.664004 
L 301.577383 69.664004 
L 302.375548 69.664004 
L 303.162704 69.664004 
L 303.939149 69.664004 
L 304.705172 69.664004 
L 305.461049 69.664004 
L 306.207045 69.664004 
L 306.943414 69.664004 
L 307.670403 69.664004 
L 308.388248 69.664004 
L 309.097174 69.664004 
L 309.797402 69.664004 
L 310.489142 69.664004 
L 311.172598 69.664004 
L 311.847965 69.664004 
L 312.515433 69.664004 
L 313.175185 69.664004 
L 313.827396 69.664004 
L 314.472237 69.664004 
L 315.109874 69.664004 
L 315.740464 69.664004 
L 316.364163 69.664004 
L 316.981119 69.664004 
L 317.591476 69.664004 
L 318.195374 69.664004 
L 318.792949 69.664004 
L 319.384331 69.664004 
L 319.969648 69.664004 
L 320.549022 69.664004 
L 321.122573 69.664004 
" style="fill:none;stroke:#ff0000;stroke-dasharray:11.1,4.8;stroke-dashoffset:0;stroke-width:3;"/>
   </g>
   <g id="line2d_46">
    <path clip-path="url(#pa21e47e9af)" d="M 58.315361 363.873186 
L 97.871788 263.574601 
L 121.010814 220.111881 
L 137.428215 196.708878 
L 150.16254 163.276016 
L 160.567241 143.2163 
L 169.364291 143.2163 
L 176.984642 129.843155 
L 183.706267 123.156583 
L 189.718967 123.156583 
L 195.158115 116.47001 
L 200.123668 109.783438 
L 204.691534 99.75358 
L 208.920718 99.75358 
L 212.857993 96.410293 
L 216.541069 96.410293 
L 220.000786 96.410293 
L 223.262694 89.723721 
L 226.348195 83.037149 
L 229.275394 83.037149 
L 232.059744 83.037149 
L 234.714542 83.037149 
L 237.251309 83.037149 
L 239.680095 83.037149 
L 242.009719 83.037149 
L 244.247961 83.037149 
L 246.401721 83.037149 
L 248.477145 83.037149 
L 250.479731 83.037149 
L 252.41442 83.037149 
L 254.285665 83.037149 
L 256.097495 83.037149 
L 257.853568 79.693863 
L 259.557213 79.693863 
L 261.21147 79.693863 
L 262.819121 79.693863 
L 264.382722 79.693863 
L 265.904622 79.693863 
L 267.386988 79.693863 
L 268.831821 79.693863 
L 270.240975 79.693863 
L 271.616171 79.693863 
L 272.959006 79.693863 
L 274.270969 79.693863 
L 275.553447 79.693863 
L 276.807736 79.693863 
L 278.035049 79.693863 
L 279.236522 79.693863 
L 280.413221 79.693863 
L 281.566146 79.693863 
L 282.696239 76.350576 
L 283.804388 76.350576 
L 284.891428 76.350576 
L 285.958148 76.350576 
L 287.005294 76.350576 
L 288.033571 76.350576 
L 289.043649 76.350576 
L 290.036158 76.350576 
L 291.011701 76.350576 
L 291.970847 76.350576 
L 292.914139 76.350576 
L 293.842092 73.00729 
L 294.755197 73.00729 
L 295.653922 73.00729 
L 296.538713 73.00729 
L 297.409995 73.00729 
L 298.268175 73.00729 
L 299.11364 73.00729 
L 299.946762 73.00729 
L 300.767897 73.00729 
L 301.577383 73.00729 
L 302.375548 73.00729 
L 303.162704 73.00729 
L 303.939149 73.00729 
L 304.705172 73.00729 
L 305.461049 73.00729 
L 306.207045 73.00729 
L 306.943414 73.00729 
L 307.670403 73.00729 
L 308.388248 73.00729 
L 309.097174 73.00729 
L 309.797402 73.00729 
L 310.489142 73.00729 
L 311.172598 73.00729 
L 311.847965 73.00729 
L 312.515433 73.00729 
L 313.175185 73.00729 
L 313.827396 73.00729 
L 314.472237 73.00729 
L 315.109874 73.00729 
L 315.740464 73.00729 
L 316.364163 73.00729 
L 316.981119 73.00729 
L 317.591476 73.00729 
L 318.195374 73.00729 
L 318.792949 73.00729 
L 319.384331 73.00729 
L 319.969648 73.00729 
L 320.549022 73.00729 
L 321.122573 73.00729 
" style="fill:none;stroke:#008000;stroke-dasharray:11.1,4.8;stroke-dashoffset:0;stroke-width:3;"/>
   </g>
  </g>
 </g>
 <defs>
  <clipPath id="pa21e47e9af">
   <rect height="434.6272" width="289.087933" x="45.175" y="32.887856"/>
  </clipPath>
 </defs>
</svg>
